<?xml version="1.0" encoding="UTF-8"?>
<svg version="1.1" viewBox="0 0 2000 2000" width="1280" height="1280" xmlns="http://www.w3.org/2000/svg">
<path transform="translate(1035,909)" d="m0 0h2l24 24 13 17 13 16 7 11 5 9 6 7 8 13 7 15 13 39 2 10v36l-3 15-7 17-9 13-9 9-14 9-14 8-10 5-10 4-17 5-17 3-43 4-18 1-110 1h-411l-3-1v-8l14-28 8-20 14-38 5-13 4-5 6-2 158 1h270l20-2 17-4 13-9 12-11 8-10 10-12 10-18 6-12 4-12 5-11 3-15 5-28zm81 153-2 2-2 9-1 14-5 13-5 12-5 6-6 9-13 18-8 12v4h6l12-6 3-4v-2l5-1 6-10 7-7 7-12 3-12 4-13 1-6v-16l-3-9z" fill="#0458A6"/>
<path transform="translate(1454,679)" d="m0 0h85l18 1 2 1-1 5-5 12-11 26-12 30-11 29-6 8-9 3h-282l-21 2-9 3-14 10-17 17-11 15-11 20-8 16-8 27-2 9-3 31-1 20-1 5-4-1-6-4-10-9-8-9-7-9-8-11-9-10-8-8-9-13-13-24-8-14-8-16-5-16-3-6-3-18-4-12v-22l5-17 3-9 8-14 11-11 15-11 11-5 20-8 17-6 24-3 29-2 53-1zm-384 34-17 8-5 4-4 6-11 13-9 20-1 6v21l3 9h4l3-8 6-24 6-15 6-8 6-9 10-13 5-8v-2z" fill="#0458A6"/>
<path transform="translate(582,678)" d="m0 0h26l17 1h46l199 1 19 3 13 5 24 13 12 7 10 8 11 14 10 18 6 11 3 11 3 5 3 21 1 10v12l-3 28-3 9-4 7-6 15-6 12-8 11-7 5-3-3-2-14-1-10-5-12-6-16-6-11-10-14-15-16-11-9-17-10-14-5-14-4-7-1h-301l-4-2-5-8-8-19-13-29-9-24-3-10v-7l3-2zm337 39 2 5 8 13 9 9 9 14 7 18 2 9 1 17 3 12 4 1 3-4 1-3v-28l-3-13-6-15-10-12-7-8-8-7-12-8z" fill="#0394D4"/>
<path transform="translate(852,824)" d="m0 0 12 3 13 9 12 11 8 9 12 22 3 17v25l-3 17-8 15-9 10-8 6-6 3-3 10 1 7 7 10 9 10 9 11 11 16 14 18 4 8-1 2h-118l-13-2-6-4-9-11-9-10-12-16-15-24-142-1-2-3-1-7v-53l1-36 2-3 3-1 14-1h151l12-1 17-7 11-7 11-8 7-9 11-19 5-8 3-7zm44 67-1 5-5 15v2l-3 1-1 2-1 15 4 1 3-2 1-7 1-11 4-13v-8z" fill="#0394D5"/>
<path transform="translate(1209,1026)" d="m0 0 5 1 13 23 8 14 11 12 12 9 10 4 16 5 18 2 182 1 4 5 5 13 12 42 9 21 5 10v9l-4 3-15 1-98-1-38-1h-42l-46 1h-28l-14-1-17-4-15-6-11-6-10-8-8-7-7-8-8-19-3-10-3-19v-10l5-20 7-16 7-11 4-6 8-8 18-11zm-37 76-3 7-1 8 2 11 11 23 8 11 8 6 7 1-1-5-10-18-3-4-3-12-3-3h-3l-1-8-5-15z" fill="#0394D5"/>
<path transform="translate(597,1221)" d="m0 0h59l8 6 10 14 5 6 8 7 8 8 13 17 4 5 11 9 14 12 12 12 31 20 17 12 15 10 17 9 23 10 40 15 19 8 36 8 52 7 6 2h61l31-3 33-5 18-4 24-6 25-9 35-13 20-9 16-8 20-12 23-15 15-10 10-8 12-9 11-9 3-3 2 1-5 5-6 8-11 10-10 8-11 9-14 12-18 13-15 9-27 15-24 14-25 11-34 12-21 6-48 12-18 3-39 3-19 1h-28l-52-5-25-5-29-7-31-8-38-14-15-6-12-6-24-14-17-10-24-15-13-10-15-11-11-9-14-14-8-7-7-8-8-7-7-7-9-11-11-15-9-10-9-9-9-14 1-3z" fill="#DF692C"/>
<path transform="translate(980,429)" d="m0 0h55l21 3 26 4 19 3 38 9 52 17 20 8 32 16 23 13 15 9 13 10 18 13 25 20 8 8 2 1v2l4 2 5 6-1 2-8-4-19-14-11-10-23-16-15-8-15-9-9-5-16-8-18-8-42-15-23-6-13-4-24-5-25-4-21-2h-64l-21 2-37 6-23 6-25 8-25 9-36 14-22 12-26 15-17 11-14 10-12 10-8 7-12 11-13 10-6 5-6 8-10 11-7 8-11 11-8 10-7 10-9 8-9 2-30 2h-17l-5-3 1-9 6-11 9-10 11-12 9-12 11-14 11-11 8-7 11-11 8-7 11-10 16-12 17-12 10-8 10-7 15-9 22-12 29-14 14-6 21-8 15-5 35-9 26-6 37-5 14-3z" fill="#7DB451"/>
<path transform="translate(1e3 486)" d="m0 0h78l38 5 29 6 26 7 37 15 28 13 25 13 14 9 10 7 14 9 9 7 11 7 12 11 9 10 17 14 17 13 5 8 1 6-4 4-2 1h-17l-23-2-13-3-8-7-7-9-10-7-10-9-13-10-14-11-11-9-20-12-9-6-24-12-8-5-24-10-19-7-28-8-30-7-54-7-14-1h-16l-31 3-36 5-43 10-30 10-36 15-16 8-22 12-19 11-13 11-11 9-10 7-11 7v-3l11-10 11-9 16-16 13-10 18-10 10-7 16-10 21-11 23-11 20-9 21-7 18-5 27-6 38-6z" fill="#DF6A2D"/>
<path transform="translate(1350,1219)" d="m0 0h30l8 2-1 4-9 11-7 8-10 9-6 7-4 3h-2l-2 5h-2v2l-8 7-11 10-13 10-17 13-11 8-21 12-10 6-38 19-20 8-21 7-42 11-44 8-7 1h-65l-14-1-24-3-31-5-24-5-36-10-25-9-17-7-6-5-25-12-13-8-15-9-13-9-11-9-14-13-14-11-1-2 6 2 9 6 12 9 6 5 12 6 14 9 13 8 22 11 25 11 18 6 16 6 35 10 37 5 19 2 17 1h31l21-2 38-5 38-8 19-8 16-5 29-12 16-8 14-8 20-14 15-10 19-14 11-8 15-14 15-15 11-9 8-6 11-3z" fill="#7DB551"/>
<path transform="translate(975,1535)" d="m0 0 21 1 2 1 3 24 6 15 7 21 4 15 4-2 7-8 8-19 8-22 7-24 2-2h19l1 1 5 54 1 21v30h-10l-3-2-3-71-1-7-5 5-8 12-5 13-6 16-10 26-5 8-4 2-5-6-4-8-15-45-7-20h-3l-3 16-4 31-5 28-1 1h-6l-4-3 2-18 4-45 4-27 1-11z" fill="#4E7799"/>
<path transform="translate(1575,1534)" d="m0 0h90l11 1 4 2 10 22 9 16 4 8 4-2 5-8 6-12 9-15 5-10 1-1h13v4l-15 26-15 25-4 11-1 6-1 32-2 2h-8l-4-2v-23l-1-15-6-17-9-16-10-16-9-14-3 5-2 1-29 1-3 3-1 10-2 66-1 15-1 1h-10l-1-1-1-87-2-6-30-2-3-1-1-8z" fill="#4E779A"/>
<path transform="translate(474,1535)" d="m0 0h17l5 5 9 16 11 19 11 13 10 15 5 8 1 1 1-2v-74l1-1h10l3 2-1 16v85l-3 3-7-1-9-10-14-19-32-48-2-1-1 17-1 61-1 2h-7l-6-3-2-3 1-55v-45z" fill="#557C9D"/>
<path transform="translate(290,1533)" d="m0 0h15l15 2 7 3 5 5 3 9v12l-2 9-6 9-8 5 5 4 7 9 4 8 4 12 3 7 2 12-2 2h-6l-6-4-2-5-2-8-11-19-5-5-8-3h-12l-9 3-2 2 2 26v9l-5 4-5 1-4-4-3-9v-9l1-8v-75l2-2zm3 10-10 2-5 5v21l2 10 3 2h23l7-4 5-6 2-7-1-9-6-8-10-5z" fill="#4D7699"/>
<path transform="translate(1241,1534)" d="m0 0h11l19 1 9 3 6 8 2 6v10l-5 13-7 9-3 3 2 4 8 13 10 23 3 12-7 2-5-3-5-8-7-17-8-12-7-3-5-1h-11l-5 3-2 5v28l-2 6-3 2h-8l-3-2v-103l1-1zm3 8-7 2-4 5-1 5 1 19 3 10 6 2h8l11-3 10-9 4-5 1-6-3-6-5-5-8-6-9-3z" fill="#33597C"/>
<path transform="translate(683,1535)" d="m0 0h16l1 1v25l1 18h29l18 1 1-43 1-1h12v104h-12l-1-1-1-46-9-1h-39l-1 47-3 2h-12z" fill="#2F5578"/>
<path transform="translate(401,1534)" d="m0 0h13l4 4 6 16 13 37 6 13 5 11 5 12 3 9-2 4-2 1h-10l-3-4-10-27-2-1h-42l-3 1-5 11-5 17-2 3-5 1-8-3-1-3 5-13 6-12 15-39 12-32 5-5zm1 16-4 9-9 26v9l6 2 10 1h15l3-1-1-9-8-21-7-13-3-3z" fill="#315779"/>
<path transform="translate(1140,1535)" d="m0 0h17l4 2 2 11 13 31 5 14 3 3 7 20 6 15 2 8-3 2-11-1-4-2-5-20-2-6-5-2-6-1h-37l-9 23-6 8-2 1h-9l-2-1 1-5 6-10 8-21 4-12 11-27 9-24 2-5zm10 15-7 10-6 10-6 15v9l3 2h26l4-2-1-12-6-18-4-13z" fill="#31577A"/>
<path transform="translate(909,1532)" d="m0 0 20 2 4 2-1 9-2 1-8-2h-23l-8 3-3 1-2 5-1 3v8l5 6 10 5 11 4 12 7 10 9 5 6 4 8 1 10-3 7-8 10-5 4-16 6-5 2h-15l-9-2-5-3-4-5 1-5 39-1 9-3 4-5 1-8-3-9-5-5-15-8-16-8-8-7-5-10-1-11 3-11 6-8 7-4 9-2z" fill="#32587B"/>
<path transform="translate(1493,1531)" d="m0 0 12 1 4 2v10l-4 1-6-1h-11l-10 3-12 6-6 7-4 8-2 6-1 14 2 15 4 10 6 9 10 4 13 5 5 1h9l15-1 3 3-1 4-15 9-10 1-10-2-21-8-11-8-6-8-6-12-2-11v-18l4-16 6-11 11-12 10-6 13-3z" fill="#4E779A"/>
<path transform="translate(633,1532)" d="m0 0h11l9 2 4 2 1 7-1 1h-19l-12 2-12 5-8 6-4 6-4 16-1 7v8l3 9 3 11 6 7 15 9 5 2h30l5 2-2 5-9 6-8 2-15-1-23-8-9-6-8-9-4-9-3-14v-19l4-14 5-12 9-10 9-6 12-5z" fill="#32587A"/>
<path transform="translate(975,1535)" d="m0 0 21 1 2 1 3 24 6 15 7 21 1 4v12l-1 11-4 1-3-8-11-33-7-20h-3l-3 16-4 31-5 28-1 1h-6l-4-3 2-18 4-45 4-27 1-11z" fill="#4D7699"/>
<path transform="translate(1331,1534)" d="m0 0h56l1 1v6l-1 2-27 2-2 6-1 24-1 64-3 2h-12l-1-97h-32l-1-1v-8z" fill="#32587A"/>
<path transform="translate(1733,1535)" d="m0 0h13v4l-15 26-15 25-4 11-1 6-1 32-2 2h-8l-4-2v-23l-1-15-6-17-4-7v-2l5-1v-6l-2-2-1-5h2l1-2 9 16 4 8 4-2 5-8 6-12 9-15 5-10z" fill="#4E779A"/>
<path transform="translate(1241,1534)" d="m0 0h11l19 1 9 3 5 6v22l-1 1-2 1-2-1-1 2-7-13-2-4-4-2-8-5-7-2h-19l-4 2-1 18v23h6l1 2 2 2-5 2-3 1v15l1 28 2 1v3l-2 1h-8l-3-2v-103l1-1z" fill="#2F5578"/>
<path transform="translate(290,1533)" d="m0 0h15l15 2 7 3 5 5 3 9v12l-2 9-6 9-5 3v-2h-2l-1-6 3-1v-3l6 2-1-6v-9l-1-5-5-5-1-2 1-2h-3v-2l-19-2-9-1-5 1h-10v99l-4 1-4-4-3-9v-9l1-8v-75l2-2z" fill="#305678"/>
<path transform="translate(1538,1535)" d="m0 0h16l1 1-1 25-1 48v26l-1 5-2 1h-8l-4-2-1-4v-99z" fill="#50789A"/>
<path transform="translate(473,1536)" d="m0 0h1v5l3-1 5 5 4 5 3 4 4 1v2h2l1 2v9l-4-5-2-1-1 17-1 61-1 2h-7l-6-3-2-3 1-55z" fill="#4D769A"/>
<path transform="translate(796,1536)" d="m0 0h11l2 1v84l-1 18-4 1h-7l-1-1z" fill="#31587B"/>
<path transform="translate(1054,1535)" d="m0 0h19l1 1 5 54 1 21v30h-10l-3-2-1-23v-67l-3-1v-2l-6-2-2-1v-2h-3l1-5z" fill="#305678"/>
<path transform="translate(474,1535)" d="m0 0h17l5 5 9 16 11 19 11 13 10 15v18h-3l-1-3-5-2-8-11-24-36-1-12h-2v-2l-5-1-7-9-2-4h-5z" fill="#305679"/>
<path transform="translate(1452,1576)" d="m0 0h1v12l2 15 4 10 6 9 10 4 13 5 5 1h9l15-1 3 3-1 4-15 9-10 1-10-2-21-8-11-8-6-8-5-10v-2h2l6 11 2 4h2l1-2 1 3 3 1 1 4 5 1 1-2 4 3-4-5-3-1-7-9-5-13v-5l-2-1-3-15 6-5z" fill="#50789A"/>
<path transform="translate(975,1535)" d="m0 0 21 1 2 1 3 24 6 15 7 21 1 4v12l-1 11-4 1-3-8-11-33-4-11v-16l-2-8-5 1-3 6-2-1-3-6-3-3v-10z" fill="#30567A"/>
<path transform="translate(1454,679)" d="m0 0h85l18 1-3 1v2h-327l-81-1v-1l53-1z" fill="#4A96BF"/>
<path transform="translate(397,1542)" d="m0 0 7 1 5 3 3 5 2 3 1 8-1 2h-2l-6-11-4-2-12 34-1 9 16 2h18l-2-11 3 3 2 7-1 5-3 1h-37l-3-2-3 2h-3v2l-6 1 2-6 10-26 11-29z" fill="#4C7598"/>
<path transform="translate(303,1583)" d="m0 0 3 1-1 2 8 1 5 4 5 2 4 1 6 9 6 17 3 7 2 12-2 2h-6l-6-4-2-5-2-8-11-19-3-4v-2l2-1-5-1-3-3h-2l-1-2-2 1-3-2h-4l-4-1v-2l-3-1 4-3z" fill="#315779"/>
<path transform="translate(1575,1534)" d="m0 0h77l2 5-3 4h-16-2-3v-2h-12v2h-2v3l-5-1v-2l-3-1v-2l-4 1h-10l-3 1-1 2h-15l-3-1-1-8z" fill="#31577A"/>
<path transform="translate(1452,1560)" d="m0 0 3 1 1 7-5 12-5 4 3 15 2 6 5 13 6 7v2l4 1 4 5h-3l-2-2-4 1-3-3-4-5-3 1-5-7-3-6v-2h-3l-2-11v-18l2-7 5-3 3-8h2v-2z" fill="#2F5577"/>
<path transform="translate(1129,1562)" d="m0 0 2 1-1 5v3 3l5 1-1 5-2 5v9l2 1h26l3-1v-10l6 2 3 4v8h-2v4h-41l-10-1-5 1 3-10 11-27z" fill="#4D7699"/>
<path transform="translate(808,1539)" d="m0 0h1v82l-1 18-2-1 1-5h-2l-1-7-1-8-1-1v-7l-1-2-1-24-1-7 1-6v-7l1-10 1-6z" fill="#4D7699"/>
<path transform="translate(1033,1593)" d="m0 0 3 4-2 3 2 4-1 2 4-1-3 10-8 20-4 6-4 2-5-6-4-8-1-4 3-1 2-18 3 6 4-2 7-8z" fill="#50789B"/>
<path transform="translate(1022,774)" d="m0 0h1l1 17 3 9 3-1 2-7 2 3 2 10v15l-3 7-3 1-2-1v-3l-4-1-1-7-3-1v-2l-3 1-1-4-3-10 1-15 3-3h5z" fill="#497599"/>
<path transform="translate(1733,1535)" d="m0 0h13v4l-15 26-10 16-2 1-4-4-1-10 13-22 5-10z" fill="#32577A"/>
<path transform="translate(545,1535)" d="m0 0h10l3 2v2l-5 2v26l2 1-1 2 1 12-1 4h1v10l-3-1 1 2v7h-2l1 6-4 2-2-5-1-23-1-48z" fill="#2F5578"/>
<path transform="translate(1663,1535)" d="m0 0h13l4 2 9 19v5l-1 1 2 5 1 3-1 5h-6l-16-26-5-8-1-5z" fill="#31577A"/>
<path transform="translate(267,1535)" d="m0 0 4 1v96l-1 5-1 4-4-8-1-4v-9l1-8v-75z" fill="#4F789A"/>
<path transform="translate(1091,698)" d="m0 0h5l2 3-3 6-10 6-7 6-6 7-5 5-7 3v-3l7-10 5-8-19 9-4 2v-3l1-2h3l1-4 5-3h5l1-6 9-1 12-6z" fill="#4A769A"/>
<path transform="translate(698,1549)" d="m0 0h1l2 30h29l18 1v-12h1v17l-9 1h-23l-17-1-5-2v-3h-4l-1-7 4-17 3-3z" fill="#527A9C"/>
<path transform="translate(1353,1541)" d="m0 0 8 1h7l2 2-10 1-2 6-1 24h-1l-1-8-2-1-1 26-1 9h-3l-1-1v-7l-2-6-1-5v-19l1-11 3-6z" fill="#4D7699"/>
<path transform="translate(603,989)" d="m0 0 11 2 134 1 3 2v3h2l4 6v2l-4-2-5-5-1-2-142-1-2-3z" fill="#235F97"/>
<path transform="translate(381,1575)" d="m0 0 2 1 3 7h4l-1 11 16 2h18l-2-11 3 3 2 7-1 5-3 1h-37l-3-2-3 2h-3v2l-6 1 2-6z" fill="#4D7699"/>
<path transform="translate(1235,1588)" d="m0 0 4 2 16 2 8 5v2l-11-2h-11l-5 3-2 5v28l-2 6-2-2-2 1-1-39 1-6 4-3z" fill="#4E779A"/>
<path transform="translate(1610,1593)" d="m0 0 3 1 3 9 1 20v7l3 1v8l-1 1h-10l-1-1v-39z" fill="#2E5578"/>
<path transform="translate(486,1575)" d="m0 0h2v65l-1 2h-7v-2l-4-2 2-6 2-1 2-15 2-37z" fill="#30577A"/>
<path transform="translate(1285,1546)" d="m0 0 2 3 1 3v10l-5 13-7 9-3 3 2 6h-3l-10-7-4-1v-3l7-4 8-8 3-6 3 4 4-1-1-2h2v-16z" fill="#4B7597"/>
<path transform="translate(969,1589)" d="m0 0 2 1 1 3v31l3 6-1 9-1 1h-6l-4-3 2-18 2-23z" fill="#33597B"/>
<path transform="translate(874,1638)" d="m0 0h14l16 1 21 1-3 2-11 4-5 2h-15l-9-2-5-3-3-3z" fill="#50789B"/>
<path transform="translate(1232,1542)" d="m0 0h7v2l-5 5-1 5 1 19 2 10h2l-1 4-3-1v3l-2-1 1-2h-6l-1-23 1-18z" fill="#4F789A"/>
<path transform="translate(1493,1531)" d="m0 0 12 1 4 2v10l-4 1-6-1h-17v-2l-4-2 2-5 4 1 3-1 1-3z" fill="#305679"/>
<path transform="translate(1316,541)" d="m0 0 3 1h3l14 11 9 9 2 1v2l4 2 5 6-1 2-8-4-19-14-11-10z" fill="#FBFBFA"/>
<path transform="translate(1517,679)" d="m0 0h22l18 1-3 1v2h-114v-2l75-1z" fill="#537D9A"/>
<path transform="translate(1111,1615)" d="m0 0h7l-3 9-1 4v3h-2l1 7-4 3h-9l-2-1 1-5 6-10 4-9z" fill="#32587B"/>
<path transform="translate(1030,1616)" d="m0 0 3 3-1 7-7 14-5 3-5-6v-7l3-4 3-1 3-4h3l2-4z" fill="#32587A"/>
<path transform="translate(1700,1611)" d="m0 0 3 2v6l2 5v6l2 1 2 7-1 3h-8l-4-2v-20l1-4h2z" fill="#355B7D"/>
<path transform="translate(734,1272)" d="m0 0 6 2 9 6 12 9 6 5 12 6 1 2-2 4-3 2-13-11-13-12-14-11z" fill="#FCFCFC"/>
<path transform="translate(1074,1547)" d="m0 0h1l4 43v9l-3-3h-3l-1-2v-40z" fill="#4E7798"/>
<path transform="translate(1071,1152)" d="m0 0 1 2-3 4v2h6l6-2 1 2h-2l-1 3-10 3-7 6-4-2h-7l-2-1 1-4 4-3h6l2-4 8-5z" fill="#4C7699"/>
<path transform="translate(1513,1631)" d="m0 0 6 1 1 5-6 4-20-1-3-1-1-6z" fill="#365C7E"/>
<path transform="translate(955,884)" d="m0 0 3 1v2l2 1-1 7-4 5-7 5-3-3-1-4v-10h2l1-2z" fill="#4E7998"/>
<path transform="translate(548,1614)" d="m0 0 4 2-3 1 2 9-1 4h2l1 7v4l-6-1-8-9-1-5-1-2 2-2v2l3-1 1-3h3z" fill="#305678"/>
<path transform="translate(1113,1604)" d="m0 0 3 3v3l8-4h3l-2 5-8 21-3 4h-2l-1-3 3-4-1-4 3-5-1-4h-6z" fill="#4E779A"/>
<path transform="translate(621,1640)" d="m0 0h39l-5 4-10 3-15-1-11-4z" fill="#527A9C"/>
<path transform="translate(593,1571)" d="m0 0h2l2 3h1l-1 20 3 9-1 3-4-5 1 3-1 2h-2l-2-9v-23z" fill="#4C7697"/>
<path transform="translate(554,1539)" d="m0 0h3v14l-1 32-3 2 1-10-1-8v-2l-1-3v-24z" fill="#4D7799"/>
<path transform="translate(1150,1544)" d="m0 0h2l2 9-4-2-11 17-2 2-2-2-1-9 4-5h4l1-2h2l2-2 2-5z" fill="#4E789C"/>
<path transform="translate(1006,757)" d="m0 0 2 1v23l-1 7 1 2v4 4h-2l-3-9v-22z" fill="#49789B"/>
<path transform="translate(750,591)" d="m0 0 4 2-2 4-8 7-12 8-8 5v-3l11-10 11-9z" fill="#96C373"/>
<path transform="translate(447,1197)" d="m0 0 5 1h26l86 1v1h-121l4-1z" fill="#5A8299"/>
<path transform="translate(1115,1047)" d="m0 0 5 1 2 3v16l-4-4-4 1-1-3 1-13z" fill="#4A7497"/>
<path transform="translate(1025,799)" d="m0 0 4 1h3v17l-1 3h-2l-7-18z" fill="#0394D5"/>
<path transform="translate(603,989)" d="m0 0 11 2 50 2v1l-59 1-2-3z" fill="#115EA4"/>
<path transform="translate(916,1042)" d="m0 0 5 5 6 8 3 7-3 1-7-1-2-11-2-6z" fill="#4D7998"/>
<path transform="translate(761,1538)" d="m0 0h1v25l-1 27h-2l-3-7 1-7 2-5z" fill="#5A80A1"/>
<path transform="translate(738,992)" d="m0 0h10l3 2v3h2l4 6v2l-4-2-5-5-1-2-39-1v-1l30-1z" fill="#477899"/>
<path transform="translate(1652,1534)" d="m0 0h13l-2 3-1 3-1-2-3 5-2 1h-6l3-6z" fill="#5C82A2"/>
<path transform="translate(1546,1613)" d="m0 0h1l1 14v13l-5-1 2-25z" fill="#2E5477"/>
<path transform="translate(1078,707)" d="m0 0 3 1-1 5-5 4-6 2 3-6-3 1v-3z" fill="#0996D6"/>
<path transform="translate(397,1554)" d="m0 0 1 4-1 7-3 4h-3l1-13z" fill="#305679"/>
<path transform="translate(1060,1551)" d="m0 0 3 1 1 9-4 2-4 5 1-10z" fill="#A6CB88"/>
<path transform="translate(1571,1535)" d="m0 0 5 1 2 5h6v2l2 1h-11l-3-1z" fill="#547C9E"/>
<path transform="translate(1035,909)" d="m0 0h2l5 5 3 4-5 3-5-1z" fill="#325879"/>
<path transform="translate(1036,1590)" d="m0 0 1 2h2l2 5-2 8-4 1v-5l-2-1 2-4v-3z" fill="#2E5477"/>
<path transform="translate(1439,1575)" d="m0 0h3l-1 4 1 3-1 3v10l-1 11h-1l-1-7v-18z" fill="#517A98"/>
<path transform="translate(412,1534)" d="m0 0 5 2 5 12 1 4-4-1-4-8-1-4z" fill="#497397"/>
<path transform="translate(1721,1556)" d="m0 0 2 2-1 10-2 3v-3l-1 3h-2v-3h-2l2-5z" fill="#4C7699"/>
<path transform="translate(852,824)" d="m0 0 9 2-4 3v2l-9 2 1-6z" fill="#38739D"/>
<path transform="translate(1067,1157)" d="m0 0 2 1v2l3 2-5 3h-2v2l-6 1-2-3 7-1 1-5z" fill="#0C93D1"/>
<path transform="translate(1285,1546)" d="m0 0 2 3 1 3v10l-2 4-2-4v-13z" fill="#507899"/>
<path transform="translate(1273,1536)" d="m0 0 5 1 5 5 2 3-3 1-2-2-4-1-4-5z" fill="#4B7594"/>
<path transform="translate(1702,1588)" d="m0 0h3l1 6-1 4-2 2-3-2 1-7z" fill="#2E5477"/>
<path transform="translate(384,1573)" d="m0 0 5 1-1 5 2 1v3l-4 1-4-8v-2z" fill="#2F5578"/>
<path transform="translate(988,1556)" d="m0 0 3 2v8l-2-2h-3l-2 2 1-9z" fill="#0896D5"/>
<path transform="translate(1493,1531)" d="m0 0 12 1v2l-14 1-3-1v-2z" fill="#5D82A2"/>
<path transform="translate(1177,1588)" d="m0 0h2l2 5 3 3 1 4h-8l1-6z" fill="#507997"/>
<path transform="translate(875,1565)" d="m0 0 1 2h2l2 7 3 3 2 6-5-4-5-10z" fill="#497397"/>
<path transform="translate(1116,945)" d="m0 0h1v19l-1 5-4-1-2-2 2-1 2 1z" fill="#3F678B"/>
<path transform="translate(619,1535)" d="m0 0 2 1-4 5-10 2 1-3z" fill="#4C7498"/>
<path transform="translate(447,1197)" d="m0 0 5 1 24 1v1h-33l4-1z" fill="#517B95"/>
<path transform="translate(1134,1079)" d="m0 0h1v9l-1 2-4-1-1-3 4-6z" fill="#2E5477"/>
<path transform="translate(1027,1626)" d="m0 0 4 2-4 9h-3l1-5h2v-2h-2z" fill="#477195"/>
<path transform="translate(737,603)" d="m0 0m-2 1 2 1-5 6-4 4-5 2 2-4z" fill="#B8D29B"/>
<path transform="translate(633,1532)" d="m0 0h11l6 1-4 2h-12z" fill="#5980A0"/>
<path transform="translate(1079,1158)" d="m0 0 3 1-2 1-1 3-10 2 3-4z" fill="#4C7FA5"/>
<path transform="translate(1554,681)" d="m0 0h5l-1 5-5 1-3-3 3-1z" fill="#245889"/>
<path transform="translate(1180,1633)" d="m0 0 5 2 3 2v2l2 1-8-1z" fill="#547B9D"/>
<path transform="translate(902,1589)" d="m0 0 6 3 3 2-1 2-9-3-2-1v-2z" fill="#4E779A"/>
<path transform="translate(1159,1077)" d="m0 0h2l-1 6-2 9h-2v-7z" fill="#3E79A1"/>
<path transform="translate(439,1604)" d="m0 0h4l3 6-1 2-4-2-2-3z" fill="#4A7498"/>
<path transform="translate(1045,1575)" d="m0 0h2v3h2l-1 6-2 2-2-2 1-3 1-1-2-1z" fill="#30577A"/>
<path transform="translate(1673,1535)" d="m0 0 6 1 2 4-5 1-4-5z" fill="#4A7498"/>
<path transform="translate(655,1538)" d="m0 0h3v5l-1 1h-5v-5z" fill="#466F93"/>
<path transform="translate(1008,804)" d="m0 0 3 1 1 6-1 6-2-2z" fill="#31577A"/>
<path transform="translate(1150,1544)" d="m0 0h2l2 9-5-3-1-4z" fill="#547E96"/>
<path transform="translate(942,1083)" d="m0 0h4v2l-8 2h-6l3-2z" fill="#3F78A1"/>
<path transform="translate(1192,1156)" d="m0 0 4 4-1 2-3-4z" fill="#8DCEEB"/>
<path transform="translate(1196,1162)" d="m0 0 3 3-3-1z" fill="#FDFDFD"/>
<path transform="translate(1076,1155)" d="m0 0 2 1h-3z" fill="#5FB6BD"/>
<path transform="translate(1190,1153)" d="m0 0 2 1-1 2z" fill="#0394D5"/>
<path transform="translate(1177,1122)" d="m0 0" fill="#0394D5"/>
<path transform="translate(1179,1127)" d="m0 0" fill="#0394D5"/>
<path transform="translate(1078,1154)" d="m0 0" fill="#7CB44F"/>
<path transform="translate(1189,1152)" d="m0 0" fill="#0394D5"/>
<path transform="translate(1180,1131)" d="m0 0" fill="#FDFDFD"/>
<path transform="translate(935,730)" d="m0 0" fill="#FDFDFD"/>
</svg>
